<svg xmlns="http://www.w3.org/2000/svg" version="1.1" xmlns:xlink="http://www.w3.org/1999/xlink" xmlns:svgjs="http://svgjs.dev/svgjs" viewBox="0 0 800 800" opacity="1"><defs><linearGradient x1="50%" y1="0%" x2="50%" y2="100%" id="ggglitch-grad"><stop stop-color="hsla(0, 0%, 27%, 1.00)" stop-opacity="1" offset="45%"></stop><stop stop-color="hsla(0, 0%, 80%, 1.00)" stop-opacity="1" offset="100%"></stop></linearGradient><clipPath id="SvgjsClipPath1340"><rect width="44.44444444444444" height="800" x="0" y="0"></rect><rect width="44.44444444444444" height="800" x="88.88888888888889" y="0"></rect><rect width="44.44444444444444" height="800" x="177.77777777777777" y="0"></rect><rect width="44.44444444444444" height="800" x="266.66666666666663" y="0"></rect><rect width="44.44444444444444" height="800" x="355.55555555555554" y="0"></rect><rect width="44.44444444444444" height="800" x="444.44444444444446" y="0"></rect><rect width="44.44444444444444" height="800" x="533.3333333333333" y="0"></rect><rect width="44.44444444444444" height="800" x="622.2222222222222" y="0"></rect><rect width="44.44444444444444" height="800" x="711.1111111111111" y="0"></rect><rect width="44.44444444444444" height="800" x="800" y="0"></rect><rect width="44.44444444444444" height="800" x="888.8888888888889" y="0"></rect><rect width="44.44444444444444" height="800" x="977.7777777777777" y="0"></rect><rect width="44.44444444444444" height="800" x="1066.6666666666665" y="0"></rect><rect width="44.44444444444444" height="800" x="1155.5555555555554" y="0"></rect><rect width="44.44444444444444" height="800" x="1244.4444444444443" y="0"></rect><rect width="44.44444444444444" height="800" x="1333.3333333333333" y="0"></rect><rect width="44.44444444444444" height="800" x="1422.2222222222222" y="0"></rect><rect width="44.44444444444444" height="800" x="1511.111111111111" y="0"></rect><rect width="44.44444444444444" height="800" x="1600" y="0"></rect></clipPath><clipPath id="SvgjsClipPath1341"><rect width="44.44444444444444" height="800" x="44.44444444444444" y="0"></rect><rect width="44.44444444444444" height="800" x="133.33333333333331" y="0"></rect><rect width="44.44444444444444" height="800" x="222.22222222222217" y="0"></rect><rect width="44.44444444444444" height="800" x="311.1111111111111" y="0"></rect><rect width="44.44444444444444" height="800" x="400" y="0"></rect><rect width="44.44444444444444" height="800" x="488.8888888888888" y="0"></rect><rect width="44.44444444444444" height="800" x="577.7777777777777" y="0"></rect><rect width="44.44444444444444" height="800" x="666.6666666666666" y="0"></rect><rect width="44.44444444444444" height="800" x="755.5555555555555" y="0"></rect><rect width="44.44444444444444" height="800" x="844.4444444444445" y="0"></rect><rect width="44.44444444444444" height="800" x="933.3333333333333" y="0"></rect><rect width="44.44444444444444" height="800" x="1022.2222222222221" y="0"></rect><rect width="44.44444444444444" height="800" x="1111.111111111111" y="0"></rect><rect width="44.44444444444444" height="800" x="1200" y="0"></rect><rect width="44.44444444444444" height="800" x="1288.888888888889" y="0"></rect><rect width="44.44444444444444" height="800" x="1377.7777777777778" y="0"></rect><rect width="44.44444444444444" height="800" x="1466.6666666666667" y="0"></rect><rect width="44.44444444444444" height="800" x="1555.5555555555557" y="0"></rect></clipPath></defs><g stroke-width="48" stroke="url(#ggglitch-grad)" fill="none"><polygon points="-24,24 24,-24 824,776 776,824" stroke="none" fill="url(#ggglitch-grad)" clip-path="url(&quot;#SvgjsClipPath1340&quot;)" opacity="0.31" transform="translate(0 -662)"></polygon><polygon points="-24,24 24,-24 824,776 776,824" stroke="none" fill="url(#ggglitch-grad)" clip-path="url(&quot;#SvgjsClipPath1341&quot;)" transform="translate(0 -694)"></polygon><polygon points="-24,24 24,-24 824,776 776,824" stroke="none" fill="url(#ggglitch-grad)" clip-path="url(&quot;#SvgjsClipPath1340&quot;)" opacity="0.31" transform="translate(0 -542)"></polygon><polygon points="-24,24 24,-24 824,776 776,824" stroke="none" fill="url(#ggglitch-grad)" clip-path="url(&quot;#SvgjsClipPath1341&quot;)" transform="translate(0 -574)"></polygon><polygon points="-24,24 24,-24 824,776 776,824" stroke="none" fill="url(#ggglitch-grad)" clip-path="url(&quot;#SvgjsClipPath1340&quot;)" opacity="0.31" transform="translate(0 -422)"></polygon><polygon points="-24,24 24,-24 824,776 776,824" stroke="none" fill="url(#ggglitch-grad)" clip-path="url(&quot;#SvgjsClipPath1341&quot;)" transform="translate(0 -454)"></polygon><polygon points="-24,24 24,-24 824,776 776,824" stroke="none" fill="url(#ggglitch-grad)" clip-path="url(&quot;#SvgjsClipPath1340&quot;)" opacity="0.31" transform="translate(0 -302)"></polygon><polygon points="-24,24 24,-24 824,776 776,824" stroke="none" fill="url(#ggglitch-grad)" clip-path="url(&quot;#SvgjsClipPath1341&quot;)" transform="translate(0 -334)"></polygon><polygon points="-24,24 24,-24 824,776 776,824" stroke="none" fill="url(#ggglitch-grad)" clip-path="url(&quot;#SvgjsClipPath1340&quot;)" opacity="0.31" transform="translate(0 -182)"></polygon><polygon points="-24,24 24,-24 824,776 776,824" stroke="none" fill="url(#ggglitch-grad)" clip-path="url(&quot;#SvgjsClipPath1341&quot;)" transform="translate(0 -214)"></polygon><polygon points="-24,24 24,-24 824,776 776,824" stroke="none" fill="url(#ggglitch-grad)" clip-path="url(&quot;#SvgjsClipPath1340&quot;)" opacity="0.31" transform="translate(0 -62)"></polygon><polygon points="-24,24 24,-24 824,776 776,824" stroke="none" fill="url(#ggglitch-grad)" clip-path="url(&quot;#SvgjsClipPath1341&quot;)" transform="translate(0 -94)"></polygon><polygon points="-24,24 24,-24 824,776 776,824" stroke="none" fill="url(#ggglitch-grad)" clip-path="url(&quot;#SvgjsClipPath1340&quot;)" opacity="0.31" transform="translate(0 58)"></polygon><polygon points="-24,24 24,-24 824,776 776,824" stroke="none" fill="url(#ggglitch-grad)" clip-path="url(&quot;#SvgjsClipPath1341&quot;)" transform="translate(0 26)"></polygon><polygon points="-24,24 24,-24 824,776 776,824" stroke="none" fill="url(#ggglitch-grad)" clip-path="url(&quot;#SvgjsClipPath1340&quot;)" opacity="0.31" transform="translate(0 178)"></polygon><polygon points="-24,24 24,-24 824,776 776,824" stroke="none" fill="url(#ggglitch-grad)" clip-path="url(&quot;#SvgjsClipPath1341&quot;)" transform="translate(0 146)"></polygon><polygon points="-24,24 24,-24 824,776 776,824" stroke="none" fill="url(#ggglitch-grad)" clip-path="url(&quot;#SvgjsClipPath1340&quot;)" opacity="0.31" transform="translate(0 298)"></polygon><polygon points="-24,24 24,-24 824,776 776,824" stroke="none" fill="url(#ggglitch-grad)" clip-path="url(&quot;#SvgjsClipPath1341&quot;)" transform="translate(0 266)"></polygon><polygon points="-24,24 24,-24 824,776 776,824" stroke="none" fill="url(#ggglitch-grad)" clip-path="url(&quot;#SvgjsClipPath1340&quot;)" opacity="0.31" transform="translate(0 418)"></polygon><polygon points="-24,24 24,-24 824,776 776,824" stroke="none" fill="url(#ggglitch-grad)" clip-path="url(&quot;#SvgjsClipPath1341&quot;)" transform="translate(0 386)"></polygon><polygon points="-24,24 24,-24 824,776 776,824" stroke="none" fill="url(#ggglitch-grad)" clip-path="url(&quot;#SvgjsClipPath1340&quot;)" opacity="0.31" transform="translate(0 538)"></polygon><polygon points="-24,24 24,-24 824,776 776,824" stroke="none" fill="url(#ggglitch-grad)" clip-path="url(&quot;#SvgjsClipPath1341&quot;)" transform="translate(0 506)"></polygon><polygon points="-24,24 24,-24 824,776 776,824" stroke="none" fill="url(#ggglitch-grad)" clip-path="url(&quot;#SvgjsClipPath1340&quot;)" opacity="0.31" transform="translate(0 658)"></polygon><polygon points="-24,24 24,-24 824,776 776,824" stroke="none" fill="url(#ggglitch-grad)" clip-path="url(&quot;#SvgjsClipPath1341&quot;)" transform="translate(0 626)"></polygon><polygon points="-24,24 24,-24 824,776 776,824" stroke="none" fill="url(#ggglitch-grad)" clip-path="url(&quot;#SvgjsClipPath1340&quot;)" opacity="0.31" transform="translate(0 778)"></polygon><polygon points="-24,24 24,-24 824,776 776,824" stroke="none" fill="url(#ggglitch-grad)" clip-path="url(&quot;#SvgjsClipPath1341&quot;)" transform="translate(0 746)"></polygon></g></svg>