<svg xmlns="http://www.w3.org/2000/svg" version="1.1" xmlns:xlink="http://www.w3.org/1999/xlink" xmlns:svgjs="http://svgjs.dev/svgjs" viewBox="0 0 600 600"><path d="M376.2552185058594,58.368202209472656C340.062749226888,42.78242874145508,198.64015833536783,54.60250727335612,151.56903076171875,70.29288482666016C104.49790318806967,85.98326237996419,91.00418345133464,100.10461044311523,93.82845306396484,152.51046752929688C96.65272267659505,204.91632461547852,100.73222223917644,336.9246826171875,168.5146484375,384.72802734375C236.29707463582355,432.5313720703125,443.4100392659505,460.5648447672526,500.52301025390625,439.3305358886719C557.6359812418619,418.0962270100911,533.1590016682943,303.24267578125,511.1924743652344,257.3221740722656C489.2259470621745,211.40167236328125,391.21338907877606,196.9665209452311,368.7238464355469,163.80752563476562C346.2343037923177,130.64853032430014,412.44768778483075,73.95397567749023,376.2552185058594,58.368202209472656C340.062749226888,42.78242874145508,198.64015833536783,54.60250727335612,151.56903076171875,70.29288482666016" fill="url(&quot;#SvgjsLinearGradient1002&quot;)"></path><defs><linearGradient id="SvgjsLinearGradient1002"><stop stop-color="hsl(230, 55%, 50%)" offset="0"></stop><stop stop-color="hsl(230, 55%, 70%)" offset="1"></stop></linearGradient><linearGradient id="SvgjsLinearGradient1003"><stop stop-color="hsl(162, 100%, 58%)" offset="0"></stop><stop stop-color="hsl(270, 73%, 53%)" offset="1"></stop></linearGradient></defs><path d="M217.9764654522105 188.11236021996172C181.78399617323913 172.52658675194414 40.36140528171896 184.34666528384517 -6.70972229193012 200.03704283714922C-53.7808498655792 215.72742039045323 -67.27456960231423 229.8487684536043 -64.45029998968403 282.25462553978593C-61.62603037705382 334.6604826259676 -57.54653081447243 466.66884062767656 10.23589538385113 514.4721853542396C78.01832158217468 562.2755300808019 285.13128621230163 590.3090027777421 342.2442572002574 569.0746938991613C399.35722818821307 547.8403850205807 374.88024861464544 432.98683379173906 352.9137213115855 387.0663320827547C330.9471940085256 341.1458303737703 232.9346360251272 326.7106789557202 210.445093381898 293.5516836452547C187.95555073866882 260.39268833478917 254.16893473118188 203.6981336879793 217.9764654522105 188.11236021996172C181.78399617323913 172.52658675194414 40.36140528171896 184.34666528384517 -6.70972229193012 200.03704283714922 " fill-opacity="1" fill="url(&quot;#SvgjsLinearGradient1003&quot;)" opacity="1" stroke-opacity="1" stroke-width="0" stroke="hsl(340, 45%, 30%)" transform="matrix(-0.6634204312890623,0,0,0.6634204312890623,375.9463132734903,149.22977967501714)"></path></svg>